<svg xmlns="http://www.w3.org/2000/svg" fill="none" viewBox="0 0 48 48"><path fill="#fff" d="M20.134 25.494L21.7 15.428c.085-.533.379-1.066 1.06-1.066h8.737c1.662.015 3.412.167 4.706.857-.007.38-.04.993-.1 1.381-.788 5.116-5.11 8.893-10.2 8.893h-5.768z"/><path fill="#fff" d="M38.332 16.43c-.02.457-.045.866-.113 1.307-.893 5.792-5.852 10.067-11.614 10.067h-5.717a1.303 1.303 0 0 0-1.28 1.112l-2.78 17.827a1.065 1.065 0 0 0 1.04 1.237h6.123c.66 0 1.171-.492 1.277-1.09l1.515-9.663a1.197 1.197 0 0 1 1.176-1.022h3.642c5.762 0 10.72-4.275 11.614-10.066.634-4.112-1.401-7.853-4.882-9.708h-.001z"/><path fill="#fff" d="M19.76 13.072c.091-.587.59-1.02 1.175-1.02h10.357c1.88.003 3.678.132 5.072.863.018-5.337-4.649-9.283-10.065-9.255H13.772a1.29 1.29 0 0 0-1.208 1.11L7.351 38.312a1.051 1.051 0 0 0 1.017 1.268h7.267l4.125-26.508z"/></svg>